<svg xmlns="http://www.w3.org/2000/svg" viewBox="0 0 1200 900">
  <!-- Baggrund -->
  <rect width="1200" height="900" fill="#f5f5f5"/>
  
  <!-- Hovedmenu -->
  <rect x="0" y="0" width="1200" height="60" fill="#2c3e50"/>
  <text x="30" y="38" font-family="Arial" font-size="22" fill="white">Hotel Administration System</text>
  
  <!-- Menuknapper -->
  <rect x="300" y="15" width="120" height="30" rx="5" fill="#3498db"/>
  <text x="325" y="35" font-family="Arial" font-size="14" fill="white">Gæster</text>
  
  <rect x="430" y="15" width="120" height="30" rx="5" fill="#3498db"/>
  <text x="443" y="35" font-family="Arial" font-size="14" fill="white">Reservationer</text>
  
  <rect x="560" y="15" width="120" height="30" rx="5" fill="#3498db"/>
  <text x="585" y="35" font-family="Arial" font-size="14" fill="white">Værelser</text>
  
  <rect x="690" y="15" width="120" height="30" rx="5" fill="#3498db"/>
  <text x="722" y="35" font-family="Arial" font-size="14" fill="white">Ydelser</text>
  
  <rect x="820" y="15" width="120" height="30" rx="5" fill="#3498db"/>
  <text x="850" y="35" font-family="Arial" font-size="14" fill="white">Rapporter</text>
  
  <rect x="950" y="15" width="120" height="30" rx="5" fill="#e74c3c"/>
  <text x="975" y="35" font-family="Arial" font-size="14" fill="white">Log ud</text>
  
  <!-- Dashboard paneler -->
  <text x="30" y="90" font-family="Arial" font-size="20" fill="#2c3e50">Dashboard</text>
  
  <!-- Aktive reservationer -->
  <rect x="30" y="110" width="350" height="250" rx="5" fill="white" stroke="#ddd"/>
  <rect x="30" y="110" width="350" height="40" rx="5" fill="#3498db"/>
  <text x="45" y="137" font-family="Arial" font-size="18" fill="white">Aktive Reservationer</text>
  
  <!-- Tabelhoved -->
  <rect x="40" y="160" width="330" height="30" fill="#ecf0f1"/>
  <text x="50" y="180" font-family="Arial" font-size="14" fill="#2c3e50">Gæst</text>
  <text x="180" y="180" font-family="Arial" font-size="14" fill="#2c3e50">Ankomst</text>
  <text x="260" y="180" font-family="Arial" font-size="14" fill="#2c3e50">Afrejse</text>
  <text x="320" y="180" font-family="Arial" font-size="14" fill="#2c3e50">Vær.</text>
  
  <!-- Tabelrækker -->
  <rect x="40" y="190" width="330" height="30" fill="white"/>
  <text x="50" y="210" font-family="Arial" font-size="12" fill="#2c3e50">Jensen, Hans</text>
  <text x="180" y="210" font-family="Arial" font-size="12" fill="#2c3e50">05-03-2025</text>
  <text x="260" y="210" font-family="Arial" font-size="12" fill="#2c3e50">10-03-2025</text>
  <text x="320" y="210" font-family="Arial" font-size="12" fill="#2c3e50">101</text>
  
  <rect x="40" y="220" width="330" height="30" fill="#f9f9f9"/>
  <text x="50" y="240" font-family="Arial" font-size="12" fill="#2c3e50">Nielsen, Jens</text>
  <text x="180" y="240" font-family="Arial" font-size="12" fill="#2c3e50">04-03-2025</text>
  <text x="260" y="240" font-family="Arial" font-size="12" fill="#2c3e50">09-03-2025</text>
  <text x="320" y="240" font-family="Arial" font-size="12" fill="#2c3e50">205</text>
  
  <rect x="40" y="250" width="330" height="30" fill="white"/>
  <text x="50" y="270" font-family="Arial" font-size="12" fill="#2c3e50">Olsen, Lars</text>
  <text x="180" y="270" font-family="Arial" font-size="12" fill="#2c3e50">06-03-2025</text>
  <text x="260" y="270" font-family="Arial" font-size="12" fill="#2c3e50">12-03-2025</text>
  <text x="320" y="270" font-family="Arial" font-size="12" fill="#2c3e50">310</text>
  
  <!-- Knapper under tabel -->
  <rect x="40" y="310" width="100" height="30" rx="5" fill="#2ecc71"/>
  <text x="60" y="330" font-family="Arial" font-size="14" fill="white">Check-in</text>
  
  <rect x="150" y="310" width="100" height="30" rx="5" fill="#e67e22"/>
  <text x="165" y="330" font-family="Arial" font-size="14" fill="white">Check-out</text>
  
  <rect x="260" y="310" width="110" height="30" rx="5" fill="#9b59b6"/>
  <text x="280" y="330" font-family="Arial" font-size="14" fill="white">Rediger</text>
  
  <!-- Værelser panel -->
  <rect x="400" y="110" width="350" height="250" rx="5" fill="white" stroke="#ddd"/>
  <rect x="400" y="110" width="350" height="40" rx="5" fill="#3498db"/>
  <text x="415" y="137" font-family="Arial" font-size="18" fill="white">Værelser Status</text>
  
  <!-- Værelser grid -->
  <!-- Række 1 -->
  <rect x="420" y="170" width="60" height="40" rx="3" fill="#2ecc71" stroke="#ddd"/>
  <text x="443" y="195" font-family="Arial" font-size="14" fill="white">101</text>
  
  <rect x="490" y="170" width="60" height="40" rx="3" fill="#e74c3c" stroke="#ddd"/>
  <text x="513" y="195" font-family="Arial" font-size="14" fill="white">102</text>
  
  <rect x="560" y="170" width="60" height="40" rx="3" fill="#2ecc71" stroke="#ddd"/>
  <text x="583" y="195" font-family="Arial" font-size="14" fill="white">103</text>
  
  <rect x="630" y="170" width="60" height="40" rx="3" fill="#f39c12" stroke="#ddd"/>
  <text x="653" y="195" font-family="Arial" font-size="14" fill="white">104</text>
  
  <!-- Række 2 -->
  <rect x="420" y="220" width="60" height="40" rx="3" fill="#e74c3c" stroke="#ddd"/>
  <text x="443" y="245" font-family="Arial" font-size="14" fill="white">201</text>
  
  <rect x="490" y="220" width="60" height="40" rx="3" fill="#2ecc71" stroke="#ddd"/>
  <text x="513" y="245" font-family="Arial" font-size="14" fill="white">202</text>
  
  <rect x="560" y="220" width="60" height="40" rx="3" fill="#2ecc71" stroke="#ddd"/>
  <text x="583" y="245" font-family="Arial" font-size="14" fill="white">203</text>
  
  <rect x="630" y="220" width="60" height="40" rx="3" fill="#7f8c8d" stroke="#ddd"/>
  <text x="653" y="245" font-family="Arial" font-size="14" fill="white">204</text>
  
  <!-- Forklaring -->
  <rect x="420" y="280" width="20" height="20" rx="3" fill="#2ecc71"/>
  <text x="450" y="295" font-family="Arial" font-size="12" fill="#2c3e50">Ledig</text>
  
  <rect x="500" y="280" width="20" height="20" rx="3" fill="#e74c3c"/>
  <text x="530" y="295" font-family="Arial" font-size="12" fill="#2c3e50">Optaget</text>
  
  <rect x="580" y="280" width="20" height="20" rx="3" fill="#f39c12"/>
  <text x="610" y="295" font-family="Arial" font-size="12" fill="#2c3e50">Check-out i dag</text>
  
  <rect x="500" y="310" width="20" height="20" rx="3" fill="#7f8c8d"/>
  <text x="530" y="325" font-family="Arial" font-size="12" fill="#2c3e50">Rengøring</text>
  
  <!-- Seneste check-ins -->
  <rect x="770" y="110" width="350" height="250" rx="5" fill="white" stroke="#ddd"/>
  <rect x="770" y="110" width="350" height="40" rx="5" fill="#3498db"/>
  <text x="785" y="137" font-family="Arial" font-size="18" fill="white">Seneste Check-ins</text>
  
  <!-- Tabelhoved -->
  <rect x="780" y="160" width="330" height="30" fill="#ecf0f1"/>
  <text x="790" y="180" font-family="Arial" font-size="14" fill="#2c3e50">Gæst</text>
  <text x="920" y="180" font-family="Arial" font-size="14" fill="#2c3e50">Tidspunkt</text>
  <text x="1050" y="180" font-family="Arial" font-size="14" fill="#2c3e50">Vær.</text>
  
  <!-- Tabelrækker -->
  <rect x="780" y="190" width="330" height="30" fill="white"/>
  <text x="790" y="210" font-family="Arial" font-size="12" fill="#2c3e50">Petersen, Niels</text>
  <text x="920" y="210" font-family="Arial" font-size="12" fill="#2c3e50">04-03-2025 15:30</text>
  <text x="1050" y="210" font-family="Arial" font-size="12" fill="#2c3e50">102</text>
  
  <rect x="780" y="220" width="330" height="30" fill="#f9f9f9"/>
  <text x="790" y="240" font-family="Arial" font-size="12" fill="#2c3e50">Larsen, Pia</text>
  <text x="920" y="240" font-family="Arial" font-size="12" fill="#2c3e50">04-03-2025 14:15</text>
  <text x="1050" y="240" font-family="Arial" font-size="12" fill="#2c3e50">201</text>
  
  <rect x="780" y="250" width="330" height="30" fill="white"/>
  <text x="790" y="270" font-family="Arial" font-size="12" fill="#2c3e50">Jensen, Mette</text>
  <text x="920" y="270" font-family="Arial" font-size="12" fill="#2c3e50">04-03-2025 11:45</text>
  <text x="1050" y="270" font-family="Arial" font-size="12" fill="#2c3e50">302</text>
  
  <!-- Funktioner panel -->
  <rect x="30" y="380" width="1090" height="80" rx="5" fill="white" stroke="#ddd"/>
  <rect x="30" y="380" width="1090" height="40" rx="5" fill="#3498db"/>
  <text x="45" y="407" font-family="Arial" font-size="18" fill="white">Hurtige Funktioner</text>
  
  <!-- Funktionsknapper -->
  <rect x="50" y="435" width="180" height="35" rx="5" fill="#3498db"/>
  <text x="75" y="457" font-family="Arial" font-size="14" fill="white">Ny Reservation</text>
  
  <rect x="250" y="435" width="180" height="35" rx="5" fill="#2ecc71"/>
  <text x="300" y="457" font-family="Arial" font-size="14" fill="white">Check-in</text>
  
  <rect x="450" y="435" width="180" height="35" rx="5" fill="#e67e22"/>
  <text x="500" y="457" font-family="Arial" font-size="14" fill="white">Check-out</text>
  
  <rect x="650" y="435" width="180" height="35" rx="5" fill="#9b59b6"/>
  <text x="690" y="457" font-family="Arial" font-size="14" fill="white">Tilføj Ydelser</text>
  
  <rect x="850" y="435" width="180" height="35" rx="5" fill="#34495e"/>
  <text x="900" y="457" font-family="Arial" font-size="14" fill="white">Søg Gæst</text>
  
  <!-- Hovedarbejdsområde - Ny reservation formular -->
  <rect x="30" y="480" width="1090" height="400" rx="5" fill="white" stroke="#ddd"/>
  <rect x="30" y="480" width="1090" height="40" rx="5" fill="#3498db"/>
  <text x="45" y="507" font-family="Arial" font-size="18" fill="white">Ny Reservation</text>
  
  <!-- Venstre side - gæsteoplysninger -->
  <text x="50" y="550" font-family="Arial" font-size="16" fill="#2c3e50">Gæsteoplysninger</text>
  
  <text x="50" y="580" font-family="Arial" font-size="14" fill="#2c3e50">Navn:</text>
  <rect x="150" y="565" width="250" height="30" rx="3" fill="white" stroke="#ddd"/>
  
  <text x="50" y="620" font-family="Arial" font-size="14" fill="#2c3e50">Adresse:</text>
  <rect x="150" y="605" width="250" height="30" rx="3" fill="white" stroke="#ddd"/>
  
  <text x="50" y="660" font-family="Arial" font-size="14" fill="#2c3e50">Email:</text>
  <rect x="150" y="645" width="250" height="30" rx="3" fill="white" stroke="#ddd"/>
  
  <text x="50" y="700" font-family="Arial" font-size="14" fill="#2c3e50">Telefon:</text>
  <rect x="150" y="685" width="250" height="30" rx="3" fill="white" stroke="#ddd"/>
  
  <text x="50" y="740" font-family="Arial" font-size="14" fill="#2c3e50">Legitimation:</text>
  <rect x="150" y="725" width="250" height="30" rx="3" fill="white" stroke="#ddd"/>
  
  <!-- Højre side - reservationsdetaljer -->
  <text x="550" y="550" font-family="Arial" font-size="16" fill="#2c3e50">Reservationsdetaljer</text>
  
  <text x="550" y="580" font-family="Arial" font-size="14" fill="#2c3e50">Ankomstdato:</text>
  <rect x="675" y="565" width="150" height="30" rx="3" fill="white" stroke="#ddd"/>
  <text x="690" y="585" font-family="Arial" font-size="12" fill="#7f8c8d">05-03-2025</text>
  
  <text x="550" y="620" font-family="Arial" font-size="14" fill="#2c3e50">Afrejsedato:</text>
  <rect x="675" y="605" width="150" height="30" rx="3" fill="white" stroke="#ddd"/>
  <text x="690" y="625" font-family="Arial" font-size="12" fill="#7f8c8d">10-03-2025</text>
  
  <text x="550" y="660" font-family="Arial" font-size="14" fill="#2c3e50">Værelsestype:</text>
  <rect x="675" y="645" width="150" height="30" rx="3" fill="white" stroke="#ddd"/>
  <text x="690" y="665" font-family="Arial" font-size="12" fill="#7f8c8d">▼ Dobbelt</text>
  
  <text x="550" y="700" font-family="Arial" font-size="14" fill="#2c3e50">Værelse nr.:</text>
  <rect x="675" y="685" width="150" height="30" rx="3" fill="white" stroke="#ddd"/>
  <text x="690" y="705" font-family="Arial" font-size="12" fill="#7f8c8d">▼ 103</text>
  
  <text x="550" y="740" font-family="Arial" font-size="14" fill="#2c3e50">Prisgruppe:</text>
  <rect x="675" y="725" width="150" height="30" rx="3" fill="white" stroke="#ddd"/>
  <text x="690" y="745" font-family="Arial" font-size="12" fill="#7f8c8d">▼ Standard</text>
  
  <text x="850" y="660" font-family="Arial" font-size="14" fill="#2c3e50">Pris pr. nat:</text>
  <rect x="950" y="645" width="150" height="30" rx="3" fill="#ecf0f1" stroke="#ddd"/>
  <text x="965" y="665" font-family="Arial" font-size="12" fill="#2c3e50">1.200,00 DKK</text>
  
  <text x="850" y="700" font-family="Arial" font-size="14" fill="#2c3e50">Antal nætter:</text>
  <rect x="950" y="685" width="150" height="30" rx="3" fill="#ecf0f1" stroke="#ddd"/>
  <text x="965" y="705" font-family="Arial" font-size="12" fill="#2c3e50">5</text>
  
  <text x="850" y="740" font-family="Arial" font-size="16" font-weight="bold" fill="#2c3e50">Total:</text>
  <rect x="950" y="725" width="150" height="30" rx="3" fill="#ecf0f1" stroke="#ddd"/>
  <text x="965" y="745" font-family="Arial" font-size="14" font-weight="bold" fill="#2c3e50">6.000,00 DKK</text>
  
  <!-- Knapper forneden -->
  <rect x="750" y="800" width="180" height="40" rx="5" fill="#2ecc71"/>
  <text x="795" y="825" font-family="Arial" font-size="16" fill="white">Gem</text>
  
  <rect x="940" y="800" width="180" height="40" rx="5" fill="#e74c3c"/>
  <text x="985" y="825" font-family="Arial" font-size="16" fill="white">Annuller</text>
</svg>
